<svg width="20" height="16" viewBox="0 0 20 16" fill="none" xmlns="http://www.w3.org/2000/svg">
<path d="M9.4 12L12 9.4L14.6 12L16 10.6L13.4 8L16 5.4L14.6 4L12 6.6L9.4 4L8 5.4L10.6 8L8 10.6L9.4 12ZM7 16C6.68333 16 6.38333 15.929 6.1 15.787C5.81667 15.645 5.58333 15.4493 5.4 15.2L0 8L5.4 0.8C5.58333 0.55 5.81667 0.354333 6.1 0.213C6.38333 0.0716665 6.68333 0.000666667 7 0H18C18.55 0 19.021 0.195667 19.413 0.587C19.805 0.978333 20.0007 1.44933 20 2V14C20 14.55 19.8043 15.021 19.413 15.413C19.0217 15.805 18.5507 16.0007 18 16H7Z" fill="#FF627A"/>
</svg>
