<svg width="24" height="24" viewBox="0 0 24 24" fill="none" xmlns="http://www.w3.org/2000/svg">
<path d="M17.9999 1.05664L14.4033 4.65313L15.5966 5.84647L17.1562 4.28689V19.7128L15.5966 18.1532L14.4033 19.3465L17.9999 22.943L21.5966 19.3465L20.4033 18.1532L18.8437 19.7128V4.28689L20.4033 5.84652L21.5966 4.65313L17.9999 1.05664ZM6.63541 1.06873C5.54013 1.211 4.54699 2.4958 4.54699 4.15944C4.54699 5.07622 4.86438 5.88706 5.32957 6.44764L5.88457 7.11622L5.03065 7.27672C4.42596 7.39039 3.98262 7.70984 3.60363 8.22997C3.22465 8.75014 2.93491 9.47488 2.73185 10.31C2.36421 11.8232 2.28335 13.6707 2.27051 15.2992H4.27995L4.83171 22.6978C6.23299 23.0141 7.7291 23.003 9.07868 22.699L9.56684 15.2992H11.4801C11.4788 13.6507 11.4577 11.7778 11.1246 10.2531C10.9409 9.41253 10.6625 8.68888 10.279 8.17461C9.89529 7.66039 9.43146 7.34281 8.75257 7.23763L7.88107 7.10263L8.4312 6.41338C8.87627 5.8557 9.17801 5.05414 9.17801 4.15953C9.17801 2.38587 8.06918 1.07309 6.86243 1.07309L6.63541 1.06873Z" fill="#FF627A"/>
</svg>
