<svg width="24" height="24" viewBox="0 0 24 24" fill="none" xmlns="http://www.w3.org/2000/svg">
<path fill-rule="evenodd" clip-rule="evenodd" d="M5.59403 4.98953L4.53703 8.37753C4.36038 8.67795 4.24357 9.00972 4.19303 9.35453L4.09103 10.0325C3.69499 12.6642 3.73215 15.3429 4.20103 17.9625C4.29355 18.4797 4.55229 18.9526 4.93797 19.3094C5.32365 19.6662 5.8152 19.8875 6.33803 19.9395L7.56803 20.0625C10.516 20.3545 13.484 20.3545 16.431 20.0625L17.661 19.9405C18.1842 19.8886 18.6761 19.6673 19.062 19.3103C19.4478 18.9533 19.7066 18.4801 19.799 17.9625C20.268 15.3425 20.305 12.6645 19.909 10.0325L19.807 9.35453C19.7546 8.99579 19.6305 8.65127 19.442 8.34153L18.405 4.99453C18.2737 4.56943 18.0239 4.19059 17.6849 3.90242C17.3459 3.61425 16.9317 3.4287 16.491 3.36753C13.511 2.95301 10.488 2.95301 7.50803 3.36753C7.06792 3.42831 6.65422 3.61311 6.31528 3.90035C5.97634 4.18758 5.72617 4.56536 5.59403 4.98953ZM16.284 4.85253C13.4411 4.45576 10.5569 4.45576 7.71403 4.85253C7.55567 4.87432 7.40681 4.94085 7.28494 5.0443C7.16307 5.14774 7.07325 5.28382 7.02603 5.43653L6.52503 7.04253C6.56236 7.0372 6.60003 7.03287 6.63803 7.02953L7.61603 6.93253C10.532 6.64253 13.468 6.64253 16.384 6.93253L17.362 7.02953C17.398 7.03287 17.4337 7.03687 17.469 7.04153L16.972 5.43753C16.925 5.28463 16.8352 5.14834 16.7133 5.04471C16.5914 4.94108 16.4425 4.8744 16.284 4.85253ZM16 11.7495C16.1989 11.7495 16.3897 11.6705 16.5304 11.5299C16.671 11.3892 16.75 11.1984 16.75 10.9995C16.75 10.8006 16.671 10.6099 16.5304 10.4692C16.3897 10.3286 16.1989 10.2495 16 10.2495H8.00003C7.80111 10.2495 7.61035 10.3286 7.4697 10.4692C7.32904 10.6099 7.25003 10.8006 7.25003 10.9995C7.25003 11.1984 7.32904 11.3892 7.4697 11.5299C7.61035 11.6705 7.80111 11.7495 8.00003 11.7495H16Z" fill="#FF627A"/>
</svg>
