<svg width="24" height="24" viewBox="0 0 24 24" fill="none" xmlns="http://www.w3.org/2000/svg">
<path d="M24 18.8571V24H0V18.8571C0.401786 18.8571 0.78125 18.7946 1.13839 18.6696C1.49554 18.5446 1.75893 18.4219 1.92857 18.3013C2.09821 18.1808 2.30804 18.0134 2.55804 17.7991C2.82589 17.558 3.0558 17.3884 3.24777 17.2902C3.43973 17.192 3.69196 17.1429 4.00446 17.1429C4.21875 17.1429 4.41518 17.1741 4.59375 17.2366C4.77232 17.2991 4.91071 17.3661 5.00893 17.4375C5.10714 17.5089 5.25446 17.6295 5.45089 17.7991C5.70982 18.0223 5.91964 18.192 6.08036 18.308C6.24107 18.4241 6.5 18.5446 6.85714 18.6696C7.21429 18.7946 7.59821 18.8571 8.00893 18.8571C8.41071 18.8571 8.79018 18.7924 9.14732 18.6629C9.50446 18.5335 9.76339 18.4129 9.92411 18.3013C10.0848 18.1897 10.2991 18.0223 10.567 17.7991C10.7545 17.6295 10.8996 17.5089 11.0022 17.4375C11.1049 17.3661 11.2433 17.2991 11.4174 17.2366C11.5915 17.1741 11.7857 17.1429 12 17.1429C12.3125 17.1429 12.5647 17.192 12.7567 17.2902C12.9487 17.3884 13.1786 17.558 13.4464 17.7991C13.6964 18.0134 13.9062 18.1808 14.0759 18.3013C14.2455 18.4219 14.5089 18.5446 14.8661 18.6696C15.2232 18.7946 15.6027 18.8571 16.0045 18.8571C16.4062 18.8571 16.7857 18.7946 17.1429 18.6696C17.5 18.5446 17.7634 18.4219 17.933 18.3013C18.1027 18.1808 18.3125 18.0134 18.5625 17.7991C18.8304 17.558 19.0603 17.3884 19.2522 17.2902C19.4442 17.192 19.6964 17.1429 20.0089 17.1429C20.3125 17.1429 20.5603 17.192 20.7522 17.2902C20.9442 17.3884 21.1741 17.558 21.442 17.7991C21.692 18.0134 21.9018 18.1808 22.0714 18.3013C22.2411 18.4219 22.5045 18.5446 22.8616 18.6696C23.2188 18.7946 23.5982 18.8571 24 18.8571ZM24 14.5714V17.1429C23.7857 17.1429 23.5893 17.1116 23.4107 17.0491C23.2321 16.9866 23.0938 16.9196 22.9955 16.8482C22.8973 16.7768 22.75 16.6562 22.5536 16.4866C22.2946 16.2634 22.0848 16.0938 21.9241 15.9777C21.7634 15.8616 21.5045 15.7411 21.1473 15.6161C20.7902 15.4911 20.4107 15.4286 20.0089 15.4286C19.5982 15.4286 19.2143 15.4911 18.8571 15.6161C18.5 15.7411 18.2411 15.8616 18.0804 15.9777C17.9196 16.0938 17.7098 16.2634 17.4509 16.4866C17.2545 16.6562 17.1071 16.7768 17.0089 16.8482C16.9107 16.9196 16.7723 16.9866 16.5938 17.0491C16.4152 17.1116 16.2188 17.1429 16.0045 17.1429C15.692 17.1429 15.4397 17.0938 15.2478 16.9955C15.0558 16.8973 14.8259 16.7277 14.558 16.4866C14.2991 16.2634 14.0893 16.0938 13.9286 15.9777C13.7679 15.8616 13.5089 15.7411 13.1518 15.6161C12.7946 15.4911 12.4107 15.4286 12 15.4286C11.5982 15.4286 11.2188 15.4933 10.8616 15.6228C10.5045 15.7522 10.2455 15.8728 10.0848 15.9844C9.92411 16.096 9.70982 16.2634 9.44196 16.4866C9.25446 16.6562 9.10938 16.7768 9.0067 16.8482C8.90402 16.9196 8.76562 16.9866 8.59152 17.0491C8.41741 17.1116 8.22321 17.1429 8.00893 17.1429C7.69643 17.1429 7.4442 17.0938 7.25223 16.9955C7.06027 16.8973 6.83036 16.7277 6.5625 16.4866C6.3125 16.2723 6.10268 16.1049 5.93304 15.9844C5.76339 15.8638 5.5 15.7411 5.14286 15.6161C4.78571 15.4911 4.40625 15.4286 4.00446 15.4286C3.59375 15.4286 3.20982 15.4911 2.85268 15.6161C2.49554 15.7411 2.23661 15.8616 2.07589 15.9777C1.91518 16.0938 1.70536 16.2634 1.44643 16.4866C1.17857 16.7277 0.948661 16.8973 0.756696 16.9955C0.564732 17.0938 0.3125 17.1429 0 17.1429V14.5714C0 13.8571 0.25 13.25 0.75 12.75C1.25 12.25 1.85714 12 2.57143 12H3.42857V6H6.85714V12H10.2857V6H13.7143V12H17.1429V6H20.5714V12H21.4286C22.1429 12 22.75 12.25 23.25 12.75C23.75 13.25 24 13.8571 24 14.5714ZM6.85714 3C6.85714 3.6875 6.69643 4.21652 6.375 4.58705C6.05357 4.95759 5.64286 5.14286 5.14286 5.14286C4.66964 5.14286 4.26562 4.97545 3.9308 4.64062C3.59598 4.3058 3.42857 3.90179 3.42857 3.42857C3.42857 3.16964 3.47098 2.94196 3.5558 2.74554C3.64062 2.54911 3.74554 2.39732 3.87054 2.29018C3.99554 2.18304 4.13393 2.05804 4.28571 1.91518C4.4375 1.77232 4.57589 1.6317 4.70089 1.4933C4.82589 1.35491 4.9308 1.15625 5.01562 0.897321C5.10045 0.638393 5.14286 0.339286 5.14286 0C5.48214 0 5.85268 0.330357 6.25446 0.991071C6.65625 1.65179 6.85714 2.32143 6.85714 3ZM13.7143 3C13.7143 3.6875 13.5536 4.21652 13.2321 4.58705C12.9107 4.95759 12.5 5.14286 12 5.14286C11.5268 5.14286 11.1228 4.97545 10.7879 4.64062C10.4531 4.3058 10.2857 3.90179 10.2857 3.42857C10.2857 3.16964 10.3281 2.94196 10.4129 2.74554C10.4978 2.54911 10.6027 2.39732 10.7277 2.29018C10.8527 2.18304 10.9911 2.05804 11.1429 1.91518C11.2946 1.77232 11.433 1.6317 11.558 1.4933C11.683 1.35491 11.7879 1.15625 11.8728 0.897321C11.9576 0.638393 12 0.339286 12 0C12.3393 0 12.7098 0.330357 13.1116 0.991071C13.5134 1.65179 13.7143 2.32143 13.7143 3ZM20.5714 3C20.5714 3.6875 20.4107 4.21652 20.0893 4.58705C19.7679 4.95759 19.3571 5.14286 18.8571 5.14286C18.3839 5.14286 17.9799 4.97545 17.6451 4.64062C17.3103 4.3058 17.1429 3.90179 17.1429 3.42857C17.1429 3.16964 17.1853 2.94196 17.2701 2.74554C17.3549 2.54911 17.4598 2.39732 17.5848 2.29018C17.7098 2.18304 17.8482 2.05804 18 1.91518C18.1518 1.77232 18.2902 1.6317 18.4152 1.4933C18.5402 1.35491 18.6451 1.15625 18.7299 0.897321C18.8147 0.638393 18.8571 0.339286 18.8571 0C19.1964 0 19.567 0.330357 19.9688 0.991071C20.3705 1.65179 20.5714 2.32143 20.5714 3Z" fill="#FF627A"/>
</svg>
