<svg width="24" height="24" viewBox="0 0 24 24" fill="none" xmlns="http://www.w3.org/2000/svg">
<path d="M18.5 5.5C18.5 5.36739 18.5527 5.24021 18.6464 5.14645C18.7402 5.05268 18.8674 5 19 5C19.663 5 20.2989 5.26339 20.7678 5.73223C21.2366 6.20107 21.5 6.83696 21.5 7.5V8.295C21.5005 8.62465 21.4268 8.95019 21.2845 9.24756C21.1423 9.54493 20.935 9.80652 20.678 10.013C21.0851 10.2877 21.4185 10.6581 21.649 11.0917C21.8795 11.5253 22 12.0089 22 12.5V14C22 14.1326 21.9473 14.2598 21.8536 14.3536C21.7598 14.4473 21.6326 14.5 21.5 14.5C21.3674 14.5 21.2402 14.4473 21.1464 14.3536C21.0527 14.2598 21 14.1326 21 14V12.5C21 11.9696 20.7893 11.4609 20.4142 11.0858C20.0391 10.7107 19.5304 10.5 19 10.5C18.8674 10.5 18.7402 10.4473 18.6464 10.3536C18.5527 10.2598 18.5 10.1326 18.5 10C18.5 9.86739 18.5527 9.74021 18.6464 9.64645C18.7402 9.55268 18.8674 9.5 19 9.5H19.295C19.6146 9.5 19.9211 9.37304 20.1471 9.14706C20.373 8.92108 20.5 8.61459 20.5 8.295V7.5C20.5 7.10218 20.342 6.72064 20.0607 6.43934C19.7794 6.15804 19.3978 6 19 6C18.8674 6 18.7402 5.94732 18.6464 5.85355C18.5527 5.75979 18.5 5.63261 18.5 5.5Z" fill="#FF627A"/>
<path d="M17 8.5C16.6022 8.5 16.2206 8.65804 15.9393 8.93934C15.658 9.22064 15.5 9.60218 15.5 10V10.909C15.5 11.3068 15.658 11.6884 15.9393 11.9697C16.2206 12.251 16.6022 12.409 17 12.409H18.5C18.8978 12.409 19.2794 12.567 19.5607 12.8483C19.842 13.1296 20 13.5112 20 13.909V14C20 14.1326 19.9473 14.2598 19.8536 14.3536C19.7598 14.4473 19.6326 14.5 19.5 14.5C19.3674 14.5 19.2402 14.4473 19.1464 14.3536C19.0527 14.2598 19 14.1326 19 14V13.909C19 13.7764 18.9473 13.6492 18.8536 13.5554C18.7598 13.4617 18.6326 13.409 18.5 13.409H17C16.337 13.409 15.7011 13.1456 15.2322 12.6768C14.7634 12.2079 14.5 11.572 14.5 10.909V10C14.5 9.33696 14.7634 8.70107 15.2322 8.23223C15.7011 7.76339 16.337 7.5 17 7.5C17.1326 7.5 17.2598 7.55268 17.3536 7.64645C17.4473 7.74021 17.5 7.86739 17.5 8C17.5 8.13261 17.4473 8.25979 17.3536 8.35355C17.2598 8.44732 17.1326 8.5 17 8.5ZM3.5 15.5C3.23478 15.5 2.98043 15.6054 2.79289 15.7929C2.60536 15.9804 2.5 16.2348 2.5 16.5V17.5C2.5 17.7652 2.60536 18.0196 2.79289 18.2071C2.98043 18.3946 3.23478 18.5 3.5 18.5H17C17.2652 18.5 17.5196 18.3946 17.7071 18.2071C17.8946 18.0196 18 17.7652 18 17.5V16.5C18 16.2348 17.8946 15.9804 17.7071 15.7929C17.5196 15.6054 17.2652 15.5 17 15.5H3.5ZM20 16C20 15.8674 19.9473 15.7402 19.8536 15.6464C19.7598 15.5527 19.6326 15.5 19.5 15.5C19.3674 15.5 19.2402 15.5527 19.1464 15.6464C19.0527 15.7402 19 15.8674 19 16V18C19 18.1326 19.0527 18.2598 19.1464 18.3536C19.2402 18.4473 19.3674 18.5 19.5 18.5C19.6326 18.5 19.7598 18.4473 19.8536 18.3536C19.9473 18.2598 20 18.1326 20 18V16ZM22 16C22 15.8674 21.9473 15.7402 21.8536 15.6464C21.7598 15.5527 21.6326 15.5 21.5 15.5C21.3674 15.5 21.2402 15.5527 21.1464 15.6464C21.0527 15.7402 21 15.8674 21 16V18C21 18.1326 21.0527 18.2598 21.1464 18.3536C21.2402 18.4473 21.3674 18.5 21.5 18.5C21.6326 18.5 21.7598 18.4473 21.8536 18.3536C21.9473 18.2598 22 18.1326 22 18V16Z" fill="#FF627A"/>
</svg>
