<svg width="16" height="16" viewBox="0 0 16 16" fill="none" xmlns="http://www.w3.org/2000/svg">
<path d="M6.00033 3.3335C5.82351 3.3335 5.65395 3.40374 5.52892 3.52876C5.4039 3.65379 5.33366 3.82336 5.33366 4.00017C5.33366 4.17698 5.4039 4.34655 5.52892 4.47157C5.65395 4.5966 5.82351 4.66684 6.00033 4.66684C6.17714 4.66684 6.34671 4.5966 6.47173 4.47157C6.59675 4.34655 6.66699 4.17698 6.66699 4.00017C6.66699 3.82336 6.59675 3.65379 6.47173 3.52876C6.34671 3.40374 6.17714 3.3335 6.00033 3.3335ZM4.11366 3.3335C4.25139 2.94315 4.50682 2.60512 4.84473 2.36603C5.18263 2.12693 5.58638 1.99854 6.00033 1.99854C6.41427 1.99854 6.81802 2.12693 7.15593 2.36603C7.49383 2.60512 7.74926 2.94315 7.88699 3.3335H12.667C12.8438 3.3335 13.0134 3.40374 13.1384 3.52876C13.2634 3.65379 13.3337 3.82336 13.3337 4.00017C13.3337 4.17698 13.2634 4.34655 13.1384 4.47157C13.0134 4.5966 12.8438 4.66684 12.667 4.66684H7.88699C7.74926 5.05719 7.49383 5.39521 7.15593 5.63431C6.81802 5.87341 6.41427 6.0018 6.00033 6.0018C5.58638 6.0018 5.18263 5.87341 4.84473 5.63431C4.50682 5.39521 4.25139 5.05719 4.11366 4.66684H3.33366C3.15685 4.66684 2.98728 4.5966 2.86225 4.47157C2.73723 4.34655 2.66699 4.17698 2.66699 4.00017C2.66699 3.82336 2.73723 3.65379 2.86225 3.52876C2.98728 3.40374 3.15685 3.3335 3.33366 3.3335H4.11366ZM10.0003 7.3335C9.82351 7.3335 9.65395 7.40374 9.52892 7.52876C9.4039 7.65379 9.33366 7.82336 9.33366 8.00017C9.33366 8.17698 9.4039 8.34655 9.52892 8.47157C9.65395 8.5966 9.82351 8.66684 10.0003 8.66684C10.1771 8.66684 10.3467 8.5966 10.4717 8.47157C10.5968 8.34655 10.667 8.17698 10.667 8.00017C10.667 7.82336 10.5968 7.65379 10.4717 7.52876C10.3467 7.40374 10.1771 7.3335 10.0003 7.3335ZM8.11366 7.3335C8.25139 6.94315 8.50682 6.60512 8.84473 6.36603C9.18263 6.12693 9.58638 5.99853 10.0003 5.99853C10.4143 5.99853 10.818 6.12693 11.1559 6.36603C11.4938 6.60512 11.7493 6.94315 11.887 7.3335H12.667C12.8438 7.3335 13.0134 7.40374 13.1384 7.52876C13.2634 7.65379 13.3337 7.82336 13.3337 8.00017C13.3337 8.17698 13.2634 8.34655 13.1384 8.47157C13.0134 8.5966 12.8438 8.66684 12.667 8.66684H11.887C11.7493 9.05719 11.4938 9.39521 11.1559 9.63431C10.818 9.87341 10.4143 10.0018 10.0003 10.0018C9.58638 10.0018 9.18263 9.87341 8.84473 9.63431C8.50682 9.39521 8.25139 9.05719 8.11366 8.66684H3.33366C3.15685 8.66684 2.98728 8.5966 2.86225 8.47157C2.73723 8.34655 2.66699 8.17698 2.66699 8.00017C2.66699 7.82336 2.73723 7.65379 2.86225 7.52876C2.98728 7.40374 3.15685 7.3335 3.33366 7.3335H8.11366ZM6.00033 11.3335C5.82351 11.3335 5.65395 11.4037 5.52892 11.5288C5.4039 11.6538 5.33366 11.8234 5.33366 12.0002C5.33366 12.177 5.4039 12.3465 5.52892 12.4716C5.65395 12.5966 5.82351 12.6668 6.00033 12.6668C6.17714 12.6668 6.34671 12.5966 6.47173 12.4716C6.59675 12.3465 6.66699 12.177 6.66699 12.0002C6.66699 11.8234 6.59675 11.6538 6.47173 11.5288C6.34671 11.4037 6.17714 11.3335 6.00033 11.3335ZM4.11366 11.3335C4.25139 10.9431 4.50682 10.6051 4.84473 10.366C5.18263 10.1269 5.58638 9.99854 6.00033 9.99854C6.41427 9.99854 6.81802 10.1269 7.15593 10.366C7.49383 10.6051 7.74926 10.9431 7.88699 11.3335H12.667C12.8438 11.3335 13.0134 11.4037 13.1384 11.5288C13.2634 11.6538 13.3337 11.8234 13.3337 12.0002C13.3337 12.177 13.2634 12.3465 13.1384 12.4716C13.0134 12.5966 12.8438 12.6668 12.667 12.6668H7.88699C7.74926 13.0572 7.49383 13.3952 7.15593 13.6343C6.81802 13.8734 6.41427 14.0018 6.00033 14.0018C5.58638 14.0018 5.18263 13.8734 4.84473 13.6343C4.50682 13.3952 4.25139 13.0572 4.11366 12.6668H3.33366C3.15685 12.6668 2.98728 12.5966 2.86225 12.4716C2.73723 12.3465 2.66699 12.177 2.66699 12.0002C2.66699 11.8234 2.73723 11.6538 2.86225 11.5288C2.98728 11.4037 3.15685 11.3335 3.33366 11.3335H4.11366Z" fill="#252525"/>
</svg>
