<svg width="26" height="34" viewBox="0 0 26 34" fill="none" xmlns="http://www.w3.org/2000/svg">
<path d="M2.63915 30.3995L1.90313 30.9796C1.69283 31.1407 1.43654 31.231 1.17367 31.231C0.529642 31.231 0.00390625 30.7153 0.00390625 30.0837V12.6685C0.00390625 5.83643 5.65556 0.293457 12.6216 0.293457C19.5875 0.293457 25.2392 5.83643 25.2392 12.6685V30.0837C25.2392 30.7153 24.7135 31.231 24.0694 31.231C23.8066 31.231 23.5503 31.1407 23.34 30.9796L22.604 30.3995C21.7233 29.7099 20.4484 29.8194 19.7058 30.6509L17.7015 32.9067C17.4846 33.1517 17.1626 33.2935 16.8274 33.2935C16.4923 33.2935 16.1768 33.1517 15.9534 32.9067L14.2053 30.9409C13.3707 29.9999 11.879 29.9999 11.0378 30.9409L9.28971 32.9067C9.07284 33.1517 8.75083 33.2935 8.41567 33.2935C8.08051 33.2935 7.76507 33.1517 7.54164 32.9067L5.53727 30.6509C4.79467 29.8194 3.51976 29.7099 2.63915 30.3995ZM10.5186 12.6685C10.5186 12.1214 10.2971 11.5968 9.90267 11.21C9.5083 10.8233 8.97341 10.606 8.41567 10.606C7.85794 10.606 7.32305 10.8233 6.92867 11.21C6.53429 11.5968 6.31273 12.1214 6.31273 12.6685C6.31273 13.2155 6.53429 13.7401 6.92867 14.1269C7.32305 14.5137 7.85794 14.731 8.41567 14.731C8.97341 14.731 9.5083 14.5137 9.90267 14.1269C10.2971 13.7401 10.5186 13.2155 10.5186 12.6685ZM16.8274 14.731C17.3852 14.731 17.9201 14.5137 18.3144 14.1269C18.7088 13.7401 18.9304 13.2155 18.9304 12.6685C18.9304 12.1214 18.7088 11.5968 18.3144 11.21C17.9201 10.8233 17.3852 10.606 16.8274 10.606C16.2697 10.606 15.7348 10.8233 15.3404 11.21C14.9461 11.5968 14.7245 12.1214 14.7245 12.6685C14.7245 13.2155 14.9461 13.7401 15.3404 14.1269C15.7348 14.5137 16.2697 14.731 16.8274 14.731Z" fill="#00F076"/>
</svg>
