<svg width="18" height="19" viewBox="0 0 18 19" fill="none" xmlns="http://www.w3.org/2000/svg">
<path d="M17.8325 1.555C17.9329 1.4044 17.9906 1.22935 17.9994 1.04852C18.0082 0.867687 17.9677 0.687865 17.8823 0.528235C17.7969 0.368605 17.6698 0.235156 17.5145 0.142126C17.3592 0.049095 17.1815 -2.70837e-05 17.0005 1.12028e-08H1.00046C0.819576 9.3452e-05 0.642104 0.0492478 0.486946 0.142228C0.331789 0.235208 0.204756 0.368532 0.119379 0.527999C0.0340012 0.687466 -0.00652416 0.867105 0.00211903 1.04778C0.0107622 1.22846 0.0682501 1.40341 0.16846 1.554L8.00046 13.303V17H5.00046V19H13.0005V17H10.0005V13.303L17.8325 1.555ZM15.1325 2L13.1325 5H4.86846L2.86846 2H15.1325Z" fill="#FF627A"/>
</svg>
