<svg width="24" height="24" viewBox="0 0 24 24" fill="none" xmlns="http://www.w3.org/2000/svg">
<path d="M10.2299 21.5008V14.9238H8.46289V9.03983C8.46289 8.59516 8.62089 8.21483 8.93689 7.89883C9.25289 7.58283 9.63322 7.4245 10.0779 7.42383H13.9239C14.3686 7.42383 14.7489 7.58216 15.0649 7.89883C15.3809 8.2155 15.5392 8.5955 15.5399 9.03883V14.9238H13.7699V21.5008H10.2299ZM11.9999 5.80883C11.5346 5.80883 11.1362 5.64316 10.8049 5.31183C10.4736 4.9805 10.3079 4.58216 10.3079 4.11683C10.3079 3.6515 10.4736 3.25283 10.8049 2.92083C11.1362 2.58883 11.5346 2.42316 11.9999 2.42383C12.4652 2.4245 12.8636 2.59016 13.1949 2.92083C13.5262 3.2515 13.6919 3.65016 13.6919 4.11683C13.6919 4.58216 13.5262 4.9805 13.1949 5.31183C12.8636 5.64316 12.4652 5.80883 11.9999 5.80883Z" fill="#FF627A"/>
</svg>
