<svg width="23" height="24" viewBox="0 0 23 24" fill="none" xmlns="http://www.w3.org/2000/svg">
<rect x="1.63477" y="1.89209" width="19.7301" height="19.7301" rx="9.86504" fill="#F2F4F7"/>
<rect x="1.63477" y="1.89209" width="19.7301" height="19.7301" rx="9.86504" stroke="#F9FAFB" stroke-width="2.95951"/>
<g clip-path="url(#clip0_89_7952)">
<path d="M9.85689 13.4012L11.5011 11.757M11.5011 11.757L13.1452 13.4012M11.5011 11.757V15.4564M14.7894 13.7065C15.2915 13.2919 15.6115 12.6646 15.6115 11.9625C15.6115 10.714 14.5993 9.70179 13.3508 9.70179C13.2609 9.70179 13.1769 9.65493 13.1313 9.57755C12.5953 8.66795 11.6056 8.05762 10.4735 8.05762C8.77085 8.05762 7.39062 9.43785 7.39062 11.1404C7.39062 11.9897 7.73403 12.7588 8.28956 13.3163" stroke="#475467" stroke-width="0.822087" stroke-linecap="round" stroke-linejoin="round"/>
</g>
<defs>
<clipPath id="clip0_89_7952">
<rect width="9.86504" height="9.86504" fill="white" transform="translate(6.56836 6.82471)"/>
</clipPath>
</defs>
</svg>
