<svg width="24" height="24" viewBox="0 0 24 24" fill="none" xmlns="http://www.w3.org/2000/svg">
<path d="M20.8188 5.69535C20.0395 4.92204 18.9867 4.48726 17.8888 4.48535H8.70885C8.16558 4.48511 7.62767 4.59283 7.1264 4.80227C6.62512 5.01171 6.17046 5.31868 5.78885 5.70535L5.70885 5.78535L2.62885 9.99535C2.23999 10.5992 2.0332 11.3022 2.0332 12.0204C2.0332 12.7385 2.23999 13.4415 2.62885 14.0454L5.62885 18.2154L5.70885 18.3054C6.09129 18.6902 6.54632 18.9953 7.04756 19.203C7.5488 19.4108 8.08628 19.5169 8.62885 19.5154H17.8288C18.9267 19.5134 19.9795 19.0787 20.7588 18.3054C21.1437 17.9229 21.4488 17.4679 21.6565 16.9666C21.8642 16.4654 21.9704 15.9279 21.9688 15.3854V8.61535C21.9783 8.07696 21.8816 7.54198 21.6843 7.04097C21.487 6.53995 21.1929 6.08271 20.8188 5.69535ZM16.9488 13.9054C17.0414 13.9986 17.1147 14.1092 17.1646 14.2307C17.2144 14.3523 17.2399 14.4825 17.2394 14.6139C17.2389 14.7453 17.2126 14.8753 17.1619 14.9965C17.1112 15.1177 17.0371 15.2278 16.9438 15.3204C16.8506 15.4129 16.74 15.4862 16.6185 15.5361C16.4969 15.586 16.3667 15.6114 16.2353 15.6109C16.1039 15.6104 15.9739 15.5841 15.8527 15.5334C15.7315 15.4827 15.6214 15.4086 15.5288 15.3154L13.6288 13.4154L11.7388 15.3054C11.6463 15.3986 11.5362 15.4727 11.415 15.5234C11.2938 15.5741 11.1638 15.6004 11.0324 15.6009C10.901 15.6014 10.7708 15.576 10.6492 15.5261C10.5276 15.4762 10.4171 15.4029 10.3238 15.3104C10.2306 15.2178 10.1565 15.1077 10.1058 14.9865C10.0551 14.8653 10.0288 14.7353 10.0283 14.6039C10.0278 14.4725 10.0532 14.3423 10.1031 14.2207C10.153 14.0992 10.2263 13.9886 10.3188 13.8954L12.2188 12.0054L10.3188 10.1054C10.1319 9.91705 10.0274 9.66218 10.0283 9.39682C10.0292 9.13145 10.1355 8.87733 10.3238 8.69035C10.5122 8.50337 10.767 8.39886 11.0324 8.3998C11.2977 8.40073 11.5519 8.50705 11.7388 8.69535L13.6288 10.5854L15.5288 8.68535C15.7158 8.49705 15.9699 8.39073 16.2353 8.3898C16.5007 8.38886 16.7555 8.49337 16.9438 8.68035C17.1322 8.86733 17.2385 9.12145 17.2394 9.38682C17.2403 9.65218 17.1358 9.90705 16.9488 10.0954L15.0488 12.0054L16.9488 13.9054Z" fill="#FF627A"/>
</svg>
