<svg width="24" height="24" viewBox="0 0 24 24" fill="none" xmlns="http://www.w3.org/2000/svg">
<path d="M4.08664 6.47676C4.51054 6.05285 5.01379 5.71658 5.56765 5.48715C6.12151 5.25773 6.71514 5.13965 7.31464 5.13965C7.91414 5.13965 8.50776 5.25773 9.06163 5.48715C9.61549 5.71658 10.1187 6.05285 10.5426 6.47676L11.9996 7.93376L13.4566 6.47676C14.3129 5.62064 15.4742 5.13973 16.685 5.13983C17.8958 5.13992 19.057 5.62101 19.9131 6.47726C20.7693 7.33351 21.2502 8.49479 21.2501 9.70562C21.25 10.9164 20.7689 12.0776 19.9126 12.9338L18.4556 14.3898L18.4686 14.4028L12.0126 20.8598L11.9996 20.8468L11.9866 20.8598L5.53064 14.4028L5.54364 14.3898L4.08664 12.9338C3.66257 12.5098 3.32618 12.0065 3.09666 11.4526C2.86715 10.8986 2.74902 10.3049 2.74902 9.70526C2.74902 9.10565 2.86715 8.5119 3.09666 7.95795C3.32618 7.404 3.66257 6.90068 4.08664 6.47676Z" stroke="#374756" stroke-width="1.5" stroke-linejoin="round"/>
</svg>
