<svg width="46" height="46" viewBox="0 0 46 46" fill="none" xmlns="http://www.w3.org/2000/svg">
<rect x="3" y="3" width="40" height="40" rx="20" fill="#FFEBEE"/>
<rect x="3" y="3" width="40" height="40" rx="20" stroke="#FFF6F8" stroke-width="6"/>
<g clip-path="url(#clip0_154_804)">
<path d="M14.666 23L22.7012 27.0176C22.8105 27.0722 22.8652 27.0996 22.9225 27.1103C22.9733 27.1198 23.0254 27.1198 23.0762 27.1103C23.1335 27.0996 23.1882 27.0722 23.2975 27.0176L31.3327 23M14.666 27.1666L22.7012 31.1842C22.8105 31.2389 22.8652 31.2662 22.9225 31.277C22.9733 31.2865 23.0254 31.2865 23.0762 31.277C23.1335 31.2662 23.1882 31.2389 23.2975 31.1842L31.3327 27.1666M14.666 18.8333L22.7012 14.8157C22.8105 14.7611 22.8652 14.7337 22.9225 14.723C22.9733 14.7134 23.0254 14.7134 23.0762 14.723C23.1335 14.7337 23.1882 14.7611 23.2975 14.8157L31.3327 18.8333L23.2975 22.8509C23.1882 22.9056 23.1335 22.9329 23.0762 22.9436C23.0254 22.9532 22.9733 22.9532 22.9225 22.9436C22.8652 22.9329 22.8105 22.9056 22.7012 22.8509L14.666 18.8333Z" stroke="#FF627A" stroke-width="1.66667" stroke-linecap="round" stroke-linejoin="round"/>
</g>
<defs>
<clipPath id="clip0_154_804">
<rect width="20" height="20" fill="white" transform="translate(13 13)"/>
</clipPath>
</defs>
</svg>
