<svg width="46" height="46" viewBox="0 0 46 46" fill="none" xmlns="http://www.w3.org/2000/svg">
<rect x="3" y="3" width="40" height="40" rx="20" fill="#FFEBEE"/>
<rect x="3" y="3" width="40" height="40" rx="20" stroke="#FFF6F8" stroke-width="6"/>
<path d="M23.8331 14.6665L16.4109 23.573C16.1203 23.9219 15.9749 24.0963 15.9727 24.2436C15.9708 24.3716 16.0278 24.4934 16.1274 24.5739C16.242 24.6665 16.469 24.6665 16.9231 24.6665H22.9997L22.1664 31.3332L29.5885 22.4266C29.8792 22.0778 30.0245 21.9034 30.0267 21.7561C30.0287 21.6281 29.9716 21.5063 29.872 21.4258C29.7574 21.3332 29.5304 21.3332 29.0764 21.3332H22.9997L23.8331 14.6665Z" stroke="#FF627A" stroke-width="1.66667" stroke-linecap="round" stroke-linejoin="round"/>
</svg>
