<svg width="12" height="12" viewBox="0 0 12 12" fill="none" xmlns="http://www.w3.org/2000/svg">
<path fill-rule="evenodd" clip-rule="evenodd" d="M3.27336 0.153364L0.153364 3.27536V3.2687C0.104015 3.3188 0.0650617 3.37817 0.0387465 3.44338C0.0124312 3.5086 -0.000726403 3.57838 3.09291e-05 3.6487V8.35137C3.09291e-05 8.49803 0.0533643 8.63136 0.153364 8.73137L3.2667 11.8467C3.3667 11.9467 3.5067 12 3.6467 12H8.35336C8.50003 12 8.63336 11.9467 8.73336 11.8467L11.8467 8.73137C11.896 8.68126 11.935 8.62189 11.9613 8.55668C11.9876 8.49146 12.0008 8.42169 12 8.35137V3.6487C12 3.50203 11.9467 3.3687 11.8467 3.2687L8.73336 0.153364C8.68326 0.104015 8.62389 0.0650617 8.55868 0.0387465C8.49346 0.0124312 8.42369 -0.000726403 8.35336 3.09291e-05H3.65336C3.5067 3.09291e-05 3.37336 0.0533643 3.27336 0.153364ZM6.00003 2.6667C6.17684 2.6667 6.34641 2.73694 6.47144 2.86196C6.59646 2.98698 6.6667 3.15655 6.6667 3.33336V6.6667C6.6667 6.84351 6.59646 7.01308 6.47144 7.1381C6.34641 7.26313 6.17684 7.33336 6.00003 7.33336C5.82322 7.33336 5.65365 7.26313 5.52863 7.1381C5.4036 7.01308 5.33336 6.84351 5.33336 6.6667V3.33336C5.33336 3.15655 5.4036 2.98698 5.52863 2.86196C5.65365 2.73694 5.82322 2.6667 6.00003 2.6667ZM5.33336 8.6667C5.33336 8.48989 5.4036 8.32032 5.52863 8.19529C5.65365 8.07027 5.82322 8.00003 6.00003 8.00003H6.00536C6.18218 8.00003 6.35174 8.07027 6.47677 8.19529C6.60179 8.32032 6.67203 8.48989 6.67203 8.6667C6.67203 8.84351 6.60179 9.01308 6.47677 9.1381C6.35174 9.26313 6.18218 9.33336 6.00536 9.33336H6.00003C5.82322 9.33336 5.65365 9.26313 5.52863 9.1381C5.4036 9.01308 5.33336 8.84351 5.33336 8.6667Z" fill="#FF627A"/>
</svg>
