<svg width="46" height="46" viewBox="0 0 46 46" fill="none" xmlns="http://www.w3.org/2000/svg">
<rect x="3" y="3" width="40" height="40" rx="20" fill="#FFEBEE"/>
<rect x="3" y="3" width="40" height="40" rx="20" stroke="#FFF6F8" stroke-width="6"/>
<path d="M14.666 25.0835L22.7012 29.1011C22.8105 29.1557 22.8652 29.1831 22.9225 29.1938C22.9733 29.2033 23.0254 29.2033 23.0762 29.1938C23.1335 29.1831 23.1882 29.1557 23.2975 29.1011L31.3327 25.0835M14.666 20.9168L22.7012 16.8992C22.8105 16.8445 22.8652 16.8172 22.9225 16.8065C22.9733 16.7969 23.0254 16.7969 23.0762 16.8065C23.1335 16.8172 23.1882 16.8445 23.2975 16.8992L31.3327 20.9168L23.2975 24.9344C23.1882 24.9891 23.1335 25.0164 23.0762 25.0271C23.0254 25.0367 22.9733 25.0367 22.9225 25.0271C22.8652 25.0164 22.8105 24.9891 22.7012 24.9344L14.666 20.9168Z" stroke="#FF627A" stroke-width="1.66667" stroke-linecap="round" stroke-linejoin="round"/>
</svg>
