<svg width="26" height="26" viewBox="0 0 26 26" fill="none" xmlns="http://www.w3.org/2000/svg">
<path d="M24.3125 0.75H16.4375C16.3344 0.75 16.25 0.834375 16.25 0.9375V2.6875C16.25 2.79063 16.3344 2.875 16.4375 2.875H21.45L15.2219 9.10312C13.6594 7.9 11.7531 7.25 9.75 7.25C7.34688 7.25 5.08437 8.1875 3.3875 9.8875C1.69062 11.5875 0.75 13.8469 0.75 16.25C0.75 18.6531 1.6875 20.9156 3.3875 22.6125C5.08437 24.3125 7.34688 25.25 9.75 25.25C12.1531 25.25 14.4156 24.3125 16.1125 22.6125C17.8125 20.9156 18.75 18.6531 18.75 16.25C18.75 14.2469 18.1 12.3469 16.9 10.7844L23.125 4.55937V9.5625C23.125 9.66562 23.2094 9.75 23.3125 9.75H25.0625C25.1656 9.75 25.25 9.66562 25.25 9.5625V1.6875C25.25 1.17188 24.8281 0.75 24.3125 0.75ZM9.75 22.875C6.09688 22.875 3.125 19.9031 3.125 16.25C3.125 12.5969 6.09688 9.625 9.75 9.625C13.4031 9.625 16.375 12.5969 16.375 16.25C16.375 19.9031 13.4031 22.875 9.75 22.875Z" fill="white"/>
</svg>
