<svg width="32" height="32" viewBox="0 0 32 32" fill="none" xmlns="http://www.w3.org/2000/svg">
<path d="M10 2.66602C10.7072 2.66602 11.3855 2.94697 11.8856 3.44706C12.3857 3.94716 12.6667 4.62544 12.6667 5.33268C12.6667 6.03993 12.3857 6.7182 11.8856 7.2183C11.3855 7.7184 10.7072 7.99935 10 7.99935C9.29276 7.99935 8.61448 7.7184 8.11438 7.2183C7.61428 6.7182 7.33333 6.03993 7.33333 5.33268C7.33333 4.62544 7.61428 3.94716 8.11438 3.44706C8.61448 2.94697 9.29276 2.66602 10 2.66602ZM8 29.3327V21.3327H4L7.46667 11.1993C7.86667 10.1327 8.8 9.33268 10 9.33268C11.2 9.33268 12.2667 10.1327 12.5333 11.1993L16 21.3327L19.4667 11.1993C19.8667 10.1327 20.8 9.33268 22 9.33268C23.2 9.33268 24.2667 10.1327 24.5333 11.1993L28 21.3327H24V29.3327H20V21.3327H12V29.3327H8ZM22 2.66602C22.7072 2.66602 23.3855 2.94697 23.8856 3.44706C24.3857 3.94716 24.6667 4.62544 24.6667 5.33268C24.6667 6.03993 24.3857 6.7182 23.8856 7.2183C23.3855 7.7184 22.7072 7.99935 22 7.99935C21.2928 7.99935 20.6145 7.7184 20.1144 7.2183C19.6143 6.7182 19.3333 6.03993 19.3333 5.33268C19.3333 4.62544 19.6143 3.94716 20.1144 3.44706C20.6145 2.94697 21.2928 2.66602 22 2.66602Z" fill="white"/>
</svg>
